<svg width="51" height="17" viewBox="0 0 51 17" fill="none" xmlns="http://www.w3.org/2000/svg">
<path d="M26.376 5.41297C26.3469 7.77167 28.4205 9.08784 29.9826 9.87045C31.5875 10.6733 32.1266 11.1883 32.1202 11.9064C32.1083 13.0052 30.8401 13.4902 29.6533 13.5091C27.5828 13.542 26.379 12.9343 25.4219 12.4747L24.676 16.063C25.6363 16.5179 27.4143 16.9146 29.2581 16.932C33.5861 16.932 36.4176 14.7355 36.4329 11.33C36.4499 7.0079 30.6181 6.76867 30.658 4.83681C30.6717 4.25103 31.2154 3.62592 32.4067 3.46698C32.9964 3.38669 34.6242 3.32525 36.4698 4.19901L37.1941 0.727322C36.2016 0.35578 34.926 7.62939e-06 33.3379 7.62939e-06C29.2642 7.62939e-06 26.3991 2.22639 26.376 5.41297ZM44.1544 0.299044C43.3641 0.299044 42.6982 0.772995 42.4009 1.50031L36.2186 16.677H40.5434L41.404 14.2317H46.6889L47.1881 16.677H51L47.6736 0.299044H44.1544ZM44.7595 4.72335L46.0076 10.8735H42.5894L44.7595 4.72335ZM21.1323 0.29925L17.7233 16.6768H21.8445L25.252 0.29884L21.1323 0.29925ZM15.0356 0.29925L10.7461 11.4465L9.01086 1.96812C8.80726 0.910021 8.00321 0.299044 7.11032 0.299044H0.0982148L0 0.774633C1.43955 1.09579 3.07514 1.61378 4.06605 2.16802C4.67248 2.50659 4.8454 2.80255 5.04462 3.60708L8.33113 16.677H12.6862L19.3633 0.299044L15.0356 0.29925Z" fill="url(#paint0_linear_29_46)"/>
<defs>
<linearGradient id="paint0_linear_29_46" x1="2344.67" y1="50.8976" x2="2395.06" y2="-1687.96" gradientUnits="userSpaceOnUse">
<stop stop-color="#222357"/>
<stop offset="1" stop-color="#254AA5"/>
</linearGradient>
</defs>
</svg>
