<svg width="35" height="23" viewBox="0 0 35 23" fill="none" xmlns="http://www.w3.org/2000/svg">
<g clip-path="url(#clip0_29_47)">
<path d="M6.36289 22.8857V21.3634C6.36289 20.7797 5.94262 20.3993 5.22225 20.3993C4.86213 20.3993 4.47193 20.5007 4.20178 20.8306C3.99178 20.5515 3.69168 20.3993 3.24147 20.3993C2.94123 20.3993 2.64127 20.4753 2.40106 20.7544V20.45H1.77078V22.8857H2.40106V21.5409C2.40106 21.1097 2.67121 20.9066 3.09149 20.9066C3.51149 20.9066 3.72176 21.135 3.72176 21.5409V22.8857H4.35203V21.5409C4.35203 21.1097 4.65199 20.9066 5.04219 20.9066C5.46246 20.9066 5.67246 21.135 5.67246 21.5409V22.8857H6.36289ZM15.6968 20.45H14.6765V19.7142H14.0462V20.45H13.476V20.932H14.0461V22.0484C14.0461 22.6067 14.3162 22.9364 15.0366 22.9364C15.3068 22.9364 15.6067 22.8604 15.817 22.7589L15.6368 22.3021C15.4567 22.4036 15.2467 22.429 15.0966 22.429C14.7965 22.429 14.6765 22.2768 14.6765 22.023V20.932H15.6968V20.45ZM21.0392 20.3991C20.6791 20.3991 20.439 20.5515 20.2889 20.7544V20.45H19.6587V22.8857H20.2889V21.5156C20.2889 21.1097 20.4989 20.8813 20.8891 20.8813C21.0092 20.8813 21.1593 20.9068 21.2793 20.9321L21.4594 20.4247C21.3393 20.3993 21.1593 20.3993 21.0392 20.3993M12.9657 20.6531C12.6655 20.4754 12.2454 20.3994 11.7951 20.3994C11.0749 20.3994 10.5947 20.7038 10.5947 21.1859C10.5947 21.5919 10.9549 21.8202 11.5851 21.8963L11.8852 21.9218C12.2154 21.9724 12.3955 22.0486 12.3955 22.1755C12.3955 22.353 12.1554 22.4799 11.7351 22.4799C11.3148 22.4799 10.9848 22.353 10.7747 22.2262L10.4746 22.6321C10.8047 22.8351 11.255 22.9365 11.705 22.9365C12.5455 22.9365 13.0257 22.6068 13.0257 22.15C13.0257 21.7187 12.6355 21.4903 12.0352 21.4143L11.7351 21.3888C11.465 21.3634 11.255 21.3128 11.255 21.1606C11.255 20.9829 11.465 20.8814 11.7951 20.8814C12.1554 20.8814 12.5155 21.0082 12.6956 21.0844L12.9657 20.6531ZM29.7131 20.3994C29.3528 20.3994 29.1128 20.5516 28.9626 20.7545V20.4501H28.3324V22.8858H28.9626V21.5157C28.9626 21.1098 29.1728 20.8814 29.5628 20.8814C29.683 20.8814 29.8331 20.9069 29.9532 20.9322L30.1332 20.4248C30.0132 20.3994 29.8331 20.3994 29.7131 20.3994ZM21.6695 21.668C21.6695 22.4037 22.2697 22.9365 23.2002 22.9365C23.6204 22.9365 23.9205 22.8605 24.2205 22.6575L23.9205 22.2262C23.6804 22.3784 23.4403 22.4545 23.1701 22.4545C22.6599 22.4545 22.2998 22.15 22.2998 21.668C22.2998 21.2113 22.6599 20.9068 23.1701 20.8814C23.4403 20.8814 23.6804 20.9575 23.9205 21.1098L24.2205 20.6785C23.9205 20.4754 23.6204 20.3994 23.2002 20.3994C22.2697 20.3994 21.6695 20.9322 21.6695 21.668ZM27.4921 21.668V20.4501H26.8618V20.7545C26.6517 20.5263 26.3516 20.3994 25.9614 20.3994C25.1511 20.3994 24.5208 20.9322 24.5208 21.668C24.5208 22.4037 25.1511 22.9365 25.9614 22.9365C26.3815 22.9365 26.6818 22.8098 26.8618 22.5814V22.8858H27.4921V21.668ZM25.181 21.668C25.181 21.2366 25.5112 20.8814 26.0513 20.8814C26.5616 20.8814 26.9218 21.2113 26.9218 21.668C26.9218 22.0993 26.5616 22.4545 26.0513 22.4545C25.5112 22.429 25.181 22.0993 25.181 21.668ZM17.6478 20.3994C16.8074 20.3994 16.2071 20.9068 16.2071 21.668C16.2071 22.4292 16.8072 22.9365 17.6777 22.9365C18.0979 22.9365 18.5181 22.8351 18.8483 22.6068L18.5481 22.2262C18.308 22.3784 18.0079 22.4799 17.7078 22.4799C17.3176 22.4799 16.9274 22.3277 16.8373 21.8962H18.9684V21.6934C18.9984 20.9068 18.4583 20.3994 17.6478 20.3994ZM17.6477 20.856C18.0377 20.856 18.308 21.0591 18.3679 21.4397H16.8673C16.9273 21.1098 17.1974 20.856 17.6477 20.856ZM33.2845 21.668V19.486H32.6542V20.7545C32.444 20.5263 32.1439 20.3994 31.7538 20.3994C30.9434 20.3994 30.3131 20.9322 30.3131 21.668C30.3131 22.4037 30.9434 22.9365 31.7538 22.9365C32.174 22.9365 32.4741 22.8098 32.6542 22.5814V22.8858H33.2845V21.668ZM30.9735 21.668C30.9735 21.2366 31.3035 20.8814 31.8438 20.8814C32.3541 20.8814 32.7142 21.2113 32.7142 21.668C32.7142 22.0993 32.3541 22.4545 31.8438 22.4545C31.3035 22.429 30.9735 22.0993 30.9735 21.668ZM9.90418 21.668V20.4501H9.27391V20.7545C9.06377 20.5263 8.76367 20.3994 8.37348 20.3994C7.56315 20.3994 6.93287 20.9322 6.93287 21.668C6.93287 22.4037 7.56315 22.9365 8.37348 22.9365C8.79375 22.9365 9.09385 22.8098 9.27391 22.5814V22.8858H9.90418V21.668ZM7.56315 21.668C7.56315 21.2366 7.89332 20.8814 8.4335 20.8814C8.94373 20.8814 9.30399 21.2113 9.30399 21.668C9.30399 22.0993 8.94373 22.4545 8.4335 22.4545C7.89332 22.429 7.56315 22.0993 7.56315 21.668Z" fill="black"/>
<path d="M12.7556 1.95361H22.2097V16.3143H12.7556V1.95361Z" fill="#FF5F00"/>
<path d="M13.3559 9.13401C13.3559 6.21624 14.9766 3.62822 17.4676 1.95361C15.6369 0.735769 13.326 0 10.8049 0C4.83205 0 0 4.08487 0 9.13401C0 14.1831 4.83205 18.268 10.8047 18.268C13.3258 18.268 15.6368 17.5322 17.4676 16.3143C14.9766 14.6651 13.3559 12.0518 13.3559 9.13401Z" fill="#EB001B"/>
<path d="M34.9654 9.13401C34.9654 14.183 30.1333 18.268 24.1606 18.268C21.6395 18.268 19.3285 17.5322 17.4977 16.3143C20.0188 14.6398 21.6095 12.0518 21.6095 9.13401C21.6095 6.21624 19.9887 3.62822 17.4977 1.95361C19.3284 0.735769 21.6395 0 24.1606 0C30.1333 0 34.9654 4.1103 34.9654 9.13401Z" fill="#F79E1B"/>
</g>
<defs>
<clipPath id="clip0_29_47">
<rect width="35" height="23" fill="white"/>
</clipPath>
</defs>
</svg>
