<svg width="36" height="31" viewBox="0 0 36 31" fill="none" xmlns="http://www.w3.org/2000/svg">
<path d="M3.225 5.57744L2.544 5.58131C2.319 5.58777 2.0895 5.5981 1.866 5.63298C1.52823 5.67894 1.20796 5.79331 0.931536 5.96667C0.655114 6.14002 0.430441 6.36742 0.276 6.63014C0.171 6.80839 0.105 6.98923 0.066 7.18556C0.024 7.37673 0.0105 7.57306 0.006 7.76681L0 8.03677V22.9646C0 23.0541 0.0015 23.1432 0.0045 23.2319C0.0105 23.4257 0.024 23.6233 0.0645 23.8158C0.1035 24.0087 0.1745 24.1934 0.2775 24.3699C0.484681 24.7203 0.815522 25.0052 1.2225 25.1836C1.4295 25.2741 1.6395 25.3322 1.8675 25.3671C2.0895 25.4019 2.3175 25.4136 2.5425 25.4187L2.8545 25.4226H33.1455L33.456 25.4187C33.681 25.4136 33.9105 25.4019 34.134 25.3671C34.3575 25.3322 34.5705 25.2754 34.776 25.1849C35.1844 25.0071 35.516 24.7216 35.7225 24.3699C35.8275 24.1916 35.895 24.0108 35.934 23.8145C35.9745 23.6233 35.988 23.427 35.994 23.2332C35.997 23.1437 35.9985 23.0541 35.9985 22.9646L36 22.6468V8.03548C36 7.94592 35.998 7.8568 35.994 7.7681C35.9911 7.57247 35.9711 7.3773 35.934 7.18427C35.8614 6.79561 35.6484 6.43653 35.3252 6.15805C35.0021 5.87957 34.5853 5.69585 34.134 5.63298C33.9098 5.60104 33.6832 5.58377 33.456 5.58131C33.2296 5.576 33.003 5.57471 32.7765 5.57744H3.225ZM3.225 6.23877H33.138C33.236 6.23877 33.3345 6.24006 33.4335 6.24264C33.606 6.24781 33.8085 6.25556 33.996 6.28398C34.1595 6.30981 34.296 6.34856 34.4265 6.40539C34.6894 6.52063 34.9032 6.70468 35.037 6.9311C35.1057 7.04822 35.1532 7.17366 35.178 7.3031C35.211 7.46198 35.22 7.63635 35.2245 7.78619C35.2275 7.86971 35.229 7.95453 35.229 8.04064V22.962C35.229 23.0455 35.2275 23.1299 35.2245 23.2151C35.22 23.3637 35.211 23.5381 35.1765 23.6995C35.1437 23.8895 35.0585 24.0699 34.928 24.2257C34.7975 24.3814 34.6255 24.5079 34.4265 24.5946C34.2914 24.6535 34.1468 24.6945 33.9975 24.7161C33.8122 24.7399 33.6253 24.7537 33.438 24.7574L33.138 24.7613H2.859C2.759 24.7613 2.661 24.76 2.565 24.7574C2.37668 24.7538 2.18881 24.74 2.0025 24.7161C1.839 24.6902 1.7025 24.6515 1.5705 24.5946C1.30622 24.4815 1.0923 24.2968 0.9615 24.0689C0.892834 23.9518 0.845288 23.8264 0.8205 23.6969C0.790539 23.5376 0.774494 23.3765 0.7725 23.2151L0.7695 22.9607V8.03935L0.7725 7.78489C0.7785 7.63764 0.7875 7.46456 0.8205 7.30052C0.8505 7.16102 0.8955 7.04348 0.9615 6.92981C1.09558 6.70387 1.30929 6.52029 1.572 6.40539C1.70753 6.34639 1.85269 6.30545 2.0025 6.28398C2.19 6.25556 2.3925 6.24652 2.565 6.24264L2.859 6.23877H3.225ZM10.29 11.0179C9.84 11.0386 9.288 11.275 8.97 11.6069C8.6835 11.8911 8.43 12.3561 8.496 12.7927C9.003 12.8314 9.5085 12.5744 9.828 12.2528C10.1355 11.9195 10.3455 11.4739 10.29 11.0192V11.0179ZM13.6005 11.5604V18.6556H14.8785V16.2311H16.6485C18.2655 16.2311 19.401 15.2766 19.401 13.8906C19.401 12.5085 18.288 11.5591 16.689 11.5591L13.6005 11.5604ZM14.8785 12.4891H16.3515C17.46 12.4891 18.093 13.0006 18.093 13.8958C18.093 14.7896 17.46 15.3063 16.347 15.3063H14.8785V12.4891ZM10.1475 12.8766C9.4725 12.8896 8.9025 13.2383 8.5725 13.2383C8.22 13.2383 7.683 12.8973 7.101 12.9064C6.72255 12.915 6.35327 13.0086 6.02969 13.1778C5.7061 13.347 5.43942 13.586 5.256 13.8712C4.4655 15.0441 5.0475 16.7839 5.817 17.7398C6.1905 18.2125 6.6405 18.7331 7.233 18.7137C7.7925 18.6956 8.013 18.4011 8.6925 18.4011C9.3735 18.4011 9.5715 18.7137 10.1625 18.7046C10.7775 18.6956 11.163 18.2319 11.535 17.7579C11.964 17.2192 12.1395 16.6987 12.15 16.6716C12.1395 16.6612 10.965 16.2737 10.9545 15.1099C10.9425 14.136 11.877 13.6723 11.9205 13.6439C11.3925 12.9722 10.5705 12.8973 10.2855 12.8779L10.1475 12.8766ZM22.4535 13.3894C20.9685 13.3894 20.0445 14.0779 19.9755 15.0118H21.141C21.249 14.5494 21.6945 14.2549 22.4085 14.2549C23.1615 14.2549 23.613 14.5984 23.613 15.1732V15.5724L21.9675 15.655C20.541 15.7248 19.7355 16.2802 19.7355 17.1844C19.7355 18.1144 20.5575 18.7434 21.7335 18.7434C22.5225 18.7434 23.2815 18.3804 23.6295 17.8044H23.658V18.6556H24.84V15.0906C24.84 14.0534 23.91 13.3894 22.4535 13.3894ZM25.3635 13.4824L27.5325 18.6607C27.5325 18.6646 27.423 18.9707 27.423 18.9798C27.2355 19.5094 26.928 19.7173 26.3565 19.7173C26.253 19.7173 26.0475 19.7173 25.956 19.6979V20.5582C26.046 20.5724 26.3565 20.5827 26.4585 20.5827C27.7035 20.5827 28.2975 20.1797 28.8105 18.9255L31.0605 13.4824H29.7585L28.2405 17.692H28.218L26.6985 13.4811L25.3635 13.4824ZM23.613 16.3099V16.7181C23.613 17.391 22.938 17.9025 22.077 17.9025C21.414 17.9025 20.9805 17.608 20.9805 17.1546C20.9805 16.7129 21.3975 16.4313 22.134 16.3887L23.613 16.3099Z" fill="black"/>
</svg>
