<svg width="44" height="20" viewBox="0 0 44 20" fill="none" xmlns="http://www.w3.org/2000/svg">
<g clip-path="url(#clip0_30_54)">
<path d="M31.189 5.39772C32.3986 5.39772 33.3334 5.77409 34.0482 6.52683C34.7629 7.27948 35.0927 8.28311 35.0927 9.53762V15.5592H33.5533V14.1794H33.4983C32.8385 15.3085 31.9038 15.873 30.8041 15.873C29.8694 15.873 29.0446 15.5593 28.3849 14.9321C27.7801 14.3049 27.3952 13.4267 27.3952 12.4859C27.3952 11.4822 27.7251 10.6667 28.3849 10.0395C29.0446 9.41223 29.9794 9.16134 31.079 9.16134C32.0687 9.16134 32.8385 9.34958 33.4433 9.7886V9.34958C33.4433 8.76409 33.2517 8.1787 32.8685 7.79723L32.7834 7.7187C32.3436 7.27958 31.7938 7.0287 31.189 7.0287C30.2543 7.0287 29.5395 7.46778 29.0446 8.34595L27.6152 7.34213C28.4948 6.02487 29.6495 5.39772 31.189 5.39772ZM23.4364 1.13232C24.423 1.13232 25.3606 1.52399 26.1102 2.25438L26.2406 2.38674C27.0103 3.13948 27.3952 4.2686 27.3952 5.46036C27.3952 6.65213 27.0103 7.7185 26.2406 8.53389C25.4708 9.34928 24.5361 9.7884 23.4364 9.7884L20.7973 9.72566V15.5592H19.1477V1.13232H23.4364ZM31.4089 10.6666C30.7491 10.6666 30.1993 10.8548 29.7595 11.2311C29.3196 11.5447 29.0996 11.9838 29.0996 12.5483C29.0996 13.0502 29.3196 13.4892 29.6495 13.7402C30.0344 14.0538 30.4742 14.2419 30.9141 14.2419C31.5299 14.2419 32.1457 13.9687 32.6274 13.4733L32.7285 13.3638C33.2784 12.7993 33.5533 12.1093 33.5533 11.3565C33.0584 10.9175 32.3436 10.6665 31.409 10.6665M23.5465 2.8885H20.7974V7.90683H23.5465C24.1513 7.90683 24.7561 7.65595 25.141 7.15419C26.0207 6.2133 26.0207 4.64517 25.196 3.70419L25.141 3.64144C24.7011 3.13968 24.1513 2.82605 23.5464 2.88879M44 5.71134L38.5567 19.9501H36.9072L38.9415 14.9948L35.3677 5.77409H37.1271L39.7113 12.862H39.7663L42.2955 5.77409H44V5.71134Z" fill="#5F6368"/>
<path d="M14.2543 8.47124C14.2543 7.90673 14.1993 7.34222 14.1443 6.77771H7.27161V9.97673H11.1753C11.0104 10.9803 10.5156 11.9211 9.74583 12.4857V14.5557H12.1101C13.4846 13.113 14.2544 10.9803 14.2544 8.47134" fill="#4285F4"/>
<path d="M7.27152 16.563C9.25083 16.563 10.9003 15.8102 12.11 14.5557L9.74575 12.4858C9.08592 12.9876 8.26118 13.3012 7.27152 13.3012C5.40204 13.3012 3.75255 11.8586 3.20273 9.85132H0.783585V11.984C2.04815 14.8066 4.52238 16.563 7.27152 16.563Z" fill="#34A853"/>
<path d="M3.20273 9.85132C2.8729 8.84769 2.8729 7.71867 3.20273 6.6523V4.51965H0.783587C-0.261155 6.84054 -0.261155 9.60044 0.783587 11.984L3.20273 9.85132Z" fill="#FBBC04"/>
<path d="M7.27151 3.26513C8.31616 3.26513 9.30582 3.70425 10.0756 4.51964L12.165 2.13611C10.8453 0.756112 9.08591 -0.0592803 7.32642 0.00336671C4.57728 0.00336671 2.04814 1.75974 0.838486 4.58239L3.25771 6.71503C3.75254 4.70778 5.40202 3.26513 7.27151 3.26513Z" fill="#EA4335"/>
</g>
<defs>
<clipPath id="clip0_30_54">
<rect width="44" height="20" fill="white"/>
</clipPath>
</defs>
</svg>
