<svg width="21" height="23" viewBox="0 0 21 23" fill="none" xmlns="http://www.w3.org/2000/svg">
<g clip-path="url(#clip0_30_60)">
<path d="M17.8146 1.79026C16.6715 0.5807 14.6053 0.0621338 11.962 0.0621338H4.29048C4.02894 0.0620963 3.77597 0.148705 3.57707 0.306379C3.37817 0.464054 3.24639 0.682447 3.20545 0.922273L0.0111579 19.731C-0.0523343 20.1019 0.257006 20.4378 0.661912 20.4378H5.39807L6.58752 13.4334L6.55061 13.6527C6.63534 13.1576 7.09144 12.7924 7.63153 12.7924H9.88214C14.3035 12.7924 17.7654 11.1251 18.7767 6.30206C18.8067 6.15942 18.8327 6.02058 18.8552 5.88494C18.7276 5.82219 18.7276 5.82219 18.8552 5.88494C19.1563 4.10229 18.8532 2.88885 17.8146 1.79026Z" fill="#27346A"/>
<path d="M8.39976 5.24277C8.5292 5.18544 8.67084 5.15577 8.81426 5.15595H14.8286C15.5408 5.15595 16.2051 5.19898 16.8121 5.28968C16.982 5.31485 17.151 5.34487 17.3188 5.3797C17.5568 5.42845 17.7919 5.48811 18.0235 5.55845C18.3219 5.65098 18.5998 5.75875 18.8553 5.88494C19.1563 4.1016 18.8532 2.88885 17.8146 1.79026C16.6709 0.5807 14.6053 0.0621338 11.962 0.0621338H4.28983C3.74965 0.0621338 3.29011 0.42724 3.20545 0.922273L0.0111584 19.7303C-0.0523338 20.1018 0.257006 20.4372 0.661256 20.4372H5.39807L7.86581 5.9084C7.8901 5.7656 7.95138 5.63041 8.04439 5.51446C8.1374 5.39852 8.25935 5.30528 8.39976 5.24277Z" fill="#27346A"/>
<path d="M18.7767 6.30213C17.7654 11.1245 14.3035 12.7925 9.88213 12.7925H7.63087C7.09077 12.7925 6.6346 13.1577 6.55068 13.6528L5.07092 22.3619C5.01563 22.6865 5.286 22.9806 5.63972 22.9806H9.63218C9.86088 22.9806 10.0821 22.9048 10.2559 22.7668C10.4298 22.6289 10.545 22.4379 10.5807 22.2282L10.6196 22.0393L11.3721 17.6117L11.4205 17.367C11.4563 17.1573 11.5714 16.9663 11.7453 16.8284C11.9191 16.6905 12.1403 16.6147 12.369 16.6146H12.9665C16.834 16.6146 19.8624 15.1558 20.7473 10.9369C21.1167 9.17386 20.9256 7.70186 19.9484 6.66792C19.6521 6.35476 19.284 6.09612 18.8552 5.88501C18.832 6.02133 18.8068 6.15949 18.7767 6.30213Z" fill="#2790C3"/>
<path d="M17.7969 5.49319C17.6392 5.45045 17.48 5.4126 17.3196 5.37972C17.1516 5.34544 16.9827 5.31562 16.8129 5.29031C16.2052 5.19899 15.5414 5.15589 14.8286 5.15589H8.81492C8.67141 5.15566 8.52971 5.18558 8.40042 5.24339C8.25983 5.30568 8.13772 5.39885 8.04466 5.51484C7.95161 5.63082 7.89042 5.76613 7.86639 5.90902L6.58818 13.4334L6.55127 13.6527C6.63535 13.1576 7.09145 12.7924 7.63162 12.7924H9.88289C14.3042 12.7924 17.7661 11.1251 18.7774 6.30208C18.8075 6.15943 18.8327 6.0212 18.856 5.88495C18.5999 5.75955 18.3226 5.65092 18.0242 5.55907C17.9488 5.53588 17.873 5.51392 17.7969 5.49319Z" fill="#1F264F"/>
</g>
<defs>
<clipPath id="clip0_30_60">
<rect width="21" height="23" fill="white"/>
</clipPath>
</defs>
</svg>
