<svg width="16" height="16" viewBox="0 0 16 16" fill="none" xmlns="http://www.w3.org/2000/svg">
<path d="M13.0598 0.969116L3.10066 0.969116C2.53466 0.969116 1.99184 1.19442 1.59162 1.59546C1.1914 1.9965 0.966553 2.54043 0.966553 3.10759L0.966553 13.0871C0.966553 13.6543 1.1914 14.1982 1.59162 14.5993C1.99184 15.0003 2.53466 15.2256 3.10066 15.2256H13.0598C13.6258 15.2256 14.1687 15.0003 14.5689 14.5993C14.9691 14.1982 15.194 13.6543 15.194 13.0871V3.10759C15.194 2.54043 14.9691 1.9965 14.5689 1.59546C14.1687 1.19442 13.6258 0.969116 13.0598 0.969116ZM13.0598 2.39477C13.2485 2.39477 13.4295 2.46987 13.5629 2.60355C13.6963 2.73723 13.7712 2.91854 13.7712 3.10759V7.38454L8.79163 7.38454V2.39477L13.0598 2.39477ZM2.38929 3.10759C2.38929 2.91854 2.46424 2.73723 2.59765 2.60355C2.73106 2.46987 2.912 2.39477 3.10066 2.39477L7.36888 2.39477V7.38454H2.38929L2.38929 3.10759ZM3.10066 13.8C2.912 13.8 2.73106 13.7249 2.59765 13.5912C2.46424 13.4575 2.38929 13.2762 2.38929 13.0871L2.38929 8.81019H7.36888L7.36888 13.8H3.10066ZM13.7712 13.0871C13.7712 13.2762 13.6963 13.4575 13.5629 13.5912C13.4295 13.7249 13.2485 13.8 13.0598 13.8H8.79163V8.81019H13.7712V13.0871Z" fill="url(#paint0_linear_1_371)"/>
<defs>
<linearGradient id="paint0_linear_1_371" x1="0.966553" y1="0.969116" x2="17.9062" y2="5.89103" gradientUnits="userSpaceOnUse">
<stop stop-color="#002147"/>
<stop offset="1" stop-color="#5AB8B3"/>
</linearGradient>
</defs>
</svg>
