<svg width="14" height="16" viewBox="0 0 14 16" fill="none" xmlns="http://www.w3.org/2000/svg">
<path d="M7.88635 1.68267C7.88635 1.28899 7.58011 0.969849 7.20234 0.969849C6.82457 0.969849 6.51833 1.28899 6.51833 1.68267V8.94343L5.22351 7.59405C4.95638 7.31568 4.52329 7.31568 4.25617 7.59405C3.98905 7.87243 3.98905 8.32377 4.25617 8.60214L6.7186 11.1683C6.79151 11.2443 6.87678 11.2995 6.96766 11.334C7.04085 11.3619 7.11989 11.3771 7.20234 11.3771C7.30913 11.3771 7.41021 11.3516 7.50026 11.3061C7.54179 11.2852 7.58171 11.2596 7.6193 11.2294C7.64495 11.2088 7.66916 11.1864 7.69174 11.1623L10.1484 8.60214C10.4155 8.32377 10.4155 7.87243 10.1484 7.59405C9.88125 7.31568 9.44816 7.31568 9.18104 7.59405L7.88635 8.94329V1.68267Z" fill="url(#paint0_linear_1_374)"/>
<path d="M1.66179 10.593C2.03956 10.593 2.3458 10.9121 2.3458 11.3058V13.2304C2.3458 13.3817 2.40345 13.5267 2.50608 13.6337C2.6087 13.7406 2.74788 13.8007 2.89301 13.8007H11.5115C11.6567 13.8007 11.7958 13.7406 11.8985 13.6337C12.0011 13.5267 12.0587 13.3817 12.0587 13.2304V11.3058C12.0587 10.9121 12.365 10.593 12.7428 10.593C13.1205 10.593 13.4268 10.9121 13.4268 11.3058V13.2304C13.4268 13.7598 13.225 14.2675 12.8658 14.6418C12.5066 15.0161 12.0195 15.2263 11.5115 15.2263H2.89301C2.38506 15.2263 1.89792 15.0161 1.53874 14.6418C1.17957 14.2675 0.977783 13.7598 0.977783 13.2304L0.977783 11.3058C0.977783 10.9121 1.28402 10.593 1.66179 10.593Z" fill="url(#paint1_linear_1_374)"/>
<defs>
<linearGradient id="paint0_linear_1_374" x1="0.977783" y1="0.969849" x2="16.0754" y2="4.80822" gradientUnits="userSpaceOnUse">
<stop stop-color="#002147"/>
<stop offset="1" stop-color="#5AB8B3"/>
</linearGradient>
<linearGradient id="paint1_linear_1_374" x1="0.977783" y1="0.969849" x2="16.0754" y2="4.80822" gradientUnits="userSpaceOnUse">
<stop stop-color="#002147"/>
<stop offset="1" stop-color="#5AB8B3"/>
</linearGradient>
</defs>
</svg>
